<svg width="252" height="18" viewBox="0 0 252 18" fill="none" xmlns="http://www.w3.org/2000/svg">
<path d="M16 9C16 11.1217 15.1571 13.1566 13.6569 14.6569C12.1566 16.1571 10.1217 17 8 17C5.87827 17 3.84344 16.1571 2.34315 14.6569C0.842855 13.1566 0 11.1217 0 9C0 6.87827 0.842855 4.84344 2.34315 3.34315C3.84344 1.84285 5.87827 1 8 1C10.1217 1 12.1566 1.84285 13.6569 3.34315C15.1571 4.84344 16 6.87827 16 9ZM8 5C7.87361 5.00007 7.74863 5.02662 7.63312 5.07793C7.51761 5.12924 7.41413 5.20418 7.32934 5.29791C7.24456 5.39165 7.18035 5.5021 7.14084 5.62217C7.10134 5.74223 7.08743 5.86923 7.1 5.995L7.45 9.502C7.46176 9.63977 7.5248 9.76811 7.62664 9.86164C7.72849 9.95516 7.86173 10.0071 8 10.0071C8.13827 10.0071 8.27151 9.95516 8.37336 9.86164C8.4752 9.76811 8.53824 9.63977 8.55 9.502L8.9 5.995C8.91257 5.86923 8.89866 5.74223 8.85915 5.62217C8.81965 5.5021 8.75544 5.39165 8.67066 5.29791C8.58587 5.20418 8.48239 5.12924 8.36688 5.07793C8.25137 5.02662 8.12639 5.00007 8 5ZM8.002 11C7.73678 11 7.48243 11.1054 7.29489 11.2929C7.10736 11.4804 7.002 11.7348 7.002 12C7.002 12.2652 7.10736 12.5196 7.29489 12.7071C7.48243 12.8946 7.73678 13 8.002 13C8.26722 13 8.52157 12.8946 8.70911 12.7071C8.89664 12.5196 9.002 12.2652 9.002 12C9.002 11.7348 8.89664 11.4804 8.70911 11.2929C8.52157 11.1054 8.26722 11 8.002 11Z" fill="#495057"/>
<path opacity="0.8" d="M25.4148 13H24.3068L27.5114 4.27273H28.6023L31.8068 13H30.6989L28.0909 5.65341H28.0227L25.4148 13ZM25.8239 9.59091H30.2898V10.5284H25.8239V9.59091ZM33.0298 15.4545V6.45455H34.0014V7.49432H34.1207C34.1946 7.38068 34.2969 7.2358 34.4276 7.05966C34.5611 6.88068 34.7514 6.72159 34.9986 6.58239C35.2486 6.44034 35.5866 6.36932 36.0128 6.36932C36.5639 6.36932 37.0497 6.5071 37.4702 6.78267C37.8906 7.05824 38.2188 7.44886 38.4545 7.95455C38.6903 8.46023 38.8082 9.05682 38.8082 9.74432C38.8082 10.4375 38.6903 11.0384 38.4545 11.5469C38.2188 12.0526 37.892 12.4446 37.4744 12.723C37.0568 12.9986 36.5753 13.1364 36.0298 13.1364C35.6094 13.1364 35.2727 13.0668 35.0199 12.9276C34.767 12.7855 34.5724 12.625 34.4361 12.446C34.2997 12.2642 34.1946 12.1136 34.1207 11.9943H34.0355V15.4545H33.0298ZM34.0185 9.72727C34.0185 10.2216 34.0909 10.6577 34.2358 11.0355C34.3807 11.4105 34.5923 11.7045 34.8707 11.9176C35.1491 12.1278 35.4901 12.233 35.8935 12.233C36.3139 12.233 36.6648 12.1222 36.946 11.9006C37.2301 11.6761 37.4432 11.375 37.5852 10.9972C37.7301 10.6165 37.8026 10.1932 37.8026 9.72727C37.8026 9.26705 37.7315 8.85227 37.5895 8.48295C37.4503 8.1108 37.2386 7.81676 36.9545 7.60085C36.6733 7.3821 36.3196 7.27273 35.8935 7.27273C35.4844 7.27273 35.1406 7.37642 34.8622 7.58381C34.5838 7.78835 34.3736 8.07528 34.2315 8.4446C34.0895 8.81108 34.0185 9.23864 34.0185 9.72727ZM43.0866 13.1364C42.456 13.1364 41.9119 12.9972 41.4545 12.7188C41 12.4375 40.6491 12.0455 40.402 11.5426C40.1577 11.0369 40.0355 10.4489 40.0355 9.77841C40.0355 9.10795 40.1577 8.51705 40.402 8.00568C40.6491 7.49148 40.9929 7.09091 41.4332 6.80398C41.8764 6.5142 42.3935 6.36932 42.9844 6.36932C43.3253 6.36932 43.6619 6.42614 43.9943 6.53977C44.3267 6.65341 44.6293 6.83807 44.902 7.09375C45.1747 7.34659 45.392 7.68182 45.554 8.09943C45.7159 8.51705 45.7969 9.03125 45.7969 9.64205V10.0682H40.7514V9.19886H44.7741C44.7741 8.82955 44.7003 8.5 44.5526 8.21023C44.4077 7.92045 44.2003 7.69176 43.9304 7.52415C43.6634 7.35653 43.348 7.27273 42.9844 7.27273C42.5838 7.27273 42.2372 7.37216 41.9446 7.57102C41.6548 7.76705 41.4318 8.02273 41.2756 8.33807C41.1193 8.65341 41.0412 8.99148 41.0412 9.35227V9.93182C41.0412 10.4261 41.1264 10.8452 41.2969 11.1889C41.4702 11.5298 41.7102 11.7898 42.017 11.9688C42.3239 12.1449 42.6804 12.233 43.0866 12.233C43.3509 12.233 43.5895 12.196 43.8026 12.1222C44.0185 12.0455 44.2045 11.9318 44.3608 11.7812C44.517 11.6278 44.6378 11.4375 44.723 11.2102L45.6946 11.483C45.5923 11.8125 45.4205 12.1023 45.179 12.3523C44.9375 12.5994 44.6392 12.7926 44.2841 12.9318C43.929 13.0682 43.5298 13.1364 43.0866 13.1364ZM48.3324 9.0625V13H47.3267V6.45455H48.2983V7.47727H48.3835C48.5369 7.14489 48.7699 6.87784 49.0824 6.67614C49.3949 6.47159 49.7983 6.36932 50.2926 6.36932C50.7358 6.36932 51.1236 6.46023 51.456 6.64205C51.7884 6.82102 52.0469 7.09375 52.2315 7.46023C52.4162 7.82386 52.5085 8.28409 52.5085 8.84091V13H51.5028V8.90909C51.5028 8.39489 51.3693 7.99432 51.1023 7.70739C50.8352 7.41761 50.4688 7.27273 50.0028 7.27273C49.6818 7.27273 49.3949 7.34233 49.142 7.48153C48.892 7.62074 48.6946 7.82386 48.5497 8.09091C48.4048 8.35795 48.3324 8.68182 48.3324 9.0625ZM56.2724 13.1534C55.8576 13.1534 55.4812 13.0753 55.1431 12.919C54.805 12.7599 54.5366 12.5312 54.3377 12.233C54.1388 11.9318 54.0394 11.5682 54.0394 11.142C54.0394 10.767 54.1133 10.4631 54.261 10.2301C54.4087 9.99432 54.6062 9.80966 54.8533 9.67614C55.1005 9.54261 55.3732 9.44318 55.6715 9.37784C55.9727 9.30966 56.2752 9.25568 56.5792 9.21591C56.9769 9.16477 57.2994 9.12642 57.5465 9.10085C57.7965 9.07244 57.9783 9.02557 58.092 8.96023C58.2085 8.89489 58.2667 8.78125 58.2667 8.61932V8.58523C58.2667 8.16477 58.1516 7.83807 57.9215 7.60511C57.6942 7.37216 57.3491 7.25568 56.886 7.25568C56.4059 7.25568 56.0295 7.3608 55.7567 7.57102C55.484 7.78125 55.2923 8.00568 55.1815 8.24432L54.2269 7.90341C54.3974 7.50568 54.6246 7.19602 54.9087 6.97443C55.1957 6.75 55.5082 6.59375 55.8462 6.50568C56.1871 6.41477 56.5224 6.36932 56.8519 6.36932C57.0621 6.36932 57.3036 6.39489 57.5763 6.44602C57.8519 6.49432 58.1175 6.59517 58.3732 6.74858C58.6317 6.90199 58.8462 7.13352 59.0167 7.44318C59.1871 7.75284 59.2724 8.16761 59.2724 8.6875V13H58.2667V12.1136H58.2156C58.1474 12.2557 58.0337 12.4077 57.8746 12.5696C57.7156 12.7315 57.5039 12.8693 57.2397 12.983C56.9755 13.0966 56.6531 13.1534 56.2724 13.1534ZM56.4258 12.25C56.8235 12.25 57.1587 12.1719 57.4315 12.0156C57.707 11.8594 57.9144 11.6577 58.0536 11.4105C58.1957 11.1634 58.2667 10.9034 58.2667 10.6307V9.71023C58.2241 9.76136 58.1303 9.80824 57.9854 9.85085C57.8434 9.89062 57.6786 9.92614 57.4911 9.95739C57.3065 9.9858 57.1261 10.0114 56.9499 10.0341C56.7766 10.054 56.636 10.071 56.5281 10.0852C56.2667 10.1193 56.0224 10.1747 55.7951 10.2514C55.5707 10.3253 55.3888 10.4375 55.2496 10.5881C55.1133 10.7358 55.0451 10.9375 55.0451 11.1932C55.0451 11.5426 55.1744 11.8068 55.4329 11.9858C55.6942 12.1619 56.0252 12.25 56.4258 12.25ZM65.7443 7.92045L64.8409 8.17614C64.7841 8.02557 64.7003 7.87926 64.5895 7.73722C64.4815 7.59233 64.3338 7.47301 64.1463 7.37926C63.9588 7.28551 63.7188 7.23864 63.4261 7.23864C63.0256 7.23864 62.6918 7.33097 62.4247 7.51562C62.1605 7.69744 62.0284 7.92898 62.0284 8.21023C62.0284 8.46023 62.1193 8.65767 62.3011 8.80256C62.483 8.94744 62.767 9.06818 63.1534 9.16477L64.125 9.40341C64.7102 9.54545 65.1463 9.76278 65.4332 10.0554C65.7202 10.3452 65.8636 10.7187 65.8636 11.1761C65.8636 11.5511 65.7557 11.8864 65.5398 12.1818C65.3267 12.4773 65.0284 12.7102 64.6449 12.8807C64.2614 13.0511 63.8153 13.1364 63.3068 13.1364C62.6392 13.1364 62.0866 12.9915 61.6491 12.7017C61.2116 12.4119 60.9347 11.9886 60.8182 11.4318L61.7727 11.1932C61.8636 11.5455 62.0355 11.8097 62.2884 11.9858C62.544 12.1619 62.8778 12.25 63.2898 12.25C63.7585 12.25 64.1307 12.1506 64.4062 11.9517C64.6847 11.75 64.8239 11.5085 64.8239 11.2273C64.8239 11 64.7443 10.8097 64.5852 10.6562C64.4261 10.5 64.1818 10.3835 63.8523 10.3068L62.7614 10.0511C62.1619 9.90909 61.7216 9.68892 61.4403 9.39062C61.1619 9.08949 61.0227 8.71307 61.0227 8.26136C61.0227 7.89205 61.1264 7.56534 61.3338 7.28125C61.544 6.99716 61.8295 6.77415 62.1903 6.61222C62.554 6.45028 62.9659 6.36932 63.4261 6.36932C64.0739 6.36932 64.5824 6.51136 64.9517 6.79545C65.3239 7.07955 65.5881 7.45455 65.7443 7.92045ZM71.7582 4.27273V13H70.7525V4.27273H71.7582ZM76.3445 13.1364C75.7138 13.1364 75.1697 12.9972 74.7124 12.7188C74.2578 12.4375 73.907 12.0455 73.6598 11.5426C73.4155 11.0369 73.2933 10.4489 73.2933 9.77841C73.2933 9.10795 73.4155 8.51705 73.6598 8.00568C73.907 7.49148 74.2507 7.09091 74.6911 6.80398C75.1342 6.5142 75.6513 6.36932 76.2422 6.36932C76.5831 6.36932 76.9197 6.42614 77.2521 6.53977C77.5845 6.65341 77.8871 6.83807 78.1598 7.09375C78.4325 7.34659 78.6499 7.68182 78.8118 8.09943C78.9737 8.51705 79.0547 9.03125 79.0547 9.64205V10.0682H74.0092V9.19886H78.032C78.032 8.82955 77.9581 8.5 77.8104 8.21023C77.6655 7.92045 77.4581 7.69176 77.1882 7.52415C76.9212 7.35653 76.6058 7.27273 76.2422 7.27273C75.8416 7.27273 75.495 7.37216 75.2024 7.57102C74.9126 7.76705 74.6896 8.02273 74.5334 8.33807C74.3771 8.65341 74.299 8.99148 74.299 9.35227V9.93182C74.299 10.4261 74.3842 10.8452 74.5547 11.1889C74.728 11.5298 74.968 11.7898 75.2749 11.9688C75.5817 12.1449 75.9382 12.233 76.3445 12.233C76.6087 12.233 76.8473 12.196 77.0604 12.1222C77.2763 12.0455 77.4624 11.9318 77.6186 11.7812C77.7749 11.6278 77.8956 11.4375 77.9808 11.2102L78.9524 11.483C78.8501 11.8125 78.6783 12.1023 78.4368 12.3523C78.1953 12.5994 77.897 12.7926 77.5419 12.9318C77.1868 13.0682 76.7876 13.1364 76.3445 13.1364ZM83.4311 6.45455V7.30682H80.0391V6.45455H83.4311ZM81.0277 4.88636H82.0334V11.125C82.0334 11.4091 82.0746 11.6222 82.157 11.7642C82.2422 11.9034 82.3501 11.9972 82.4808 12.0455C82.6143 12.0909 82.755 12.1136 82.9027 12.1136C83.0135 12.1136 83.1044 12.108 83.1754 12.0966C83.2464 12.0824 83.3033 12.071 83.3459 12.0625L83.5504 12.9659C83.4822 12.9915 83.3871 13.017 83.2649 13.0426C83.1428 13.071 82.9879 13.0852 82.8004 13.0852C82.5163 13.0852 82.2379 13.0241 81.9652 12.902C81.6953 12.7798 81.4709 12.5938 81.2919 12.3438C81.1158 12.0938 81.0277 11.7784 81.0277 11.3977V4.88636ZM84.9439 13V6.45455H85.9155V7.44318H85.9837C86.103 7.11932 86.3189 6.85653 86.6314 6.65483C86.9439 6.45312 87.2962 6.35227 87.6882 6.35227C87.7621 6.35227 87.8544 6.35369 87.9652 6.35653C88.076 6.35937 88.1598 6.36364 88.2166 6.36932V7.39205C88.1825 7.38352 88.1044 7.37074 87.9822 7.35369C87.8629 7.33381 87.7365 7.32386 87.603 7.32386C87.2848 7.32386 87.0007 7.39062 86.7507 7.52415C86.5036 7.65483 86.3075 7.83665 86.1626 8.0696C86.0206 8.29972 85.9496 8.5625 85.9496 8.85795V13H84.9439ZM91.3349 13.1534C90.9201 13.1534 90.5437 13.0753 90.2056 12.919C89.8675 12.7599 89.5991 12.5312 89.4002 12.233C89.2013 11.9318 89.1019 11.5682 89.1019 11.142C89.1019 10.767 89.1758 10.4631 89.3235 10.2301C89.4712 9.99432 89.6687 9.80966 89.9158 9.67614C90.163 9.54261 90.4357 9.44318 90.734 9.37784C91.0352 9.30966 91.3377 9.25568 91.6417 9.21591C92.0394 9.16477 92.3619 9.12642 92.609 9.10085C92.859 9.07244 93.0408 9.02557 93.1545 8.96023C93.271 8.89489 93.3292 8.78125 93.3292 8.61932V8.58523C93.3292 8.16477 93.2141 7.83807 92.984 7.60511C92.7567 7.37216 92.4116 7.25568 91.9485 7.25568C91.4684 7.25568 91.092 7.3608 90.8192 7.57102C90.5465 7.78125 90.3548 8.00568 90.244 8.24432L89.2894 7.90341C89.4599 7.50568 89.6871 7.19602 89.9712 6.97443C90.2582 6.75 90.5707 6.59375 90.9087 6.50568C91.2496 6.41477 91.5849 6.36932 91.9144 6.36932C92.1246 6.36932 92.3661 6.39489 92.6388 6.44602C92.9144 6.49432 93.18 6.59517 93.4357 6.74858C93.6942 6.90199 93.9087 7.13352 94.0792 7.44318C94.2496 7.75284 94.3349 8.16761 94.3349 8.6875V13H93.3292V12.1136H93.2781C93.2099 12.2557 93.0962 12.4077 92.9371 12.5696C92.7781 12.7315 92.5664 12.8693 92.3022 12.983C92.038 13.0966 91.7156 13.1534 91.3349 13.1534ZM91.4883 12.25C91.886 12.25 92.2212 12.1719 92.494 12.0156C92.7695 11.8594 92.9769 11.6577 93.1161 11.4105C93.2582 11.1634 93.3292 10.9034 93.3292 10.6307V9.71023C93.2866 9.76136 93.1928 9.80824 93.0479 9.85085C92.9059 9.89062 92.7411 9.92614 92.5536 9.95739C92.369 9.9858 92.1886 10.0114 92.0124 10.0341C91.8391 10.054 91.6985 10.071 91.5906 10.0852C91.3292 10.1193 91.0849 10.1747 90.8576 10.2514C90.6332 10.3253 90.4513 10.4375 90.3121 10.5881C90.1758 10.7358 90.1076 10.9375 90.1076 11.1932C90.1076 11.5426 90.2369 11.8068 90.4954 11.9858C90.7567 12.1619 91.0877 12.25 91.4883 12.25ZM100.807 7.92045L99.9034 8.17614C99.8466 8.02557 99.7628 7.87926 99.652 7.73722C99.544 7.59233 99.3963 7.47301 99.2088 7.37926C99.0213 7.28551 98.7812 7.23864 98.4886 7.23864C98.0881 7.23864 97.7543 7.33097 97.4872 7.51562C97.223 7.69744 97.0909 7.92898 97.0909 8.21023C97.0909 8.46023 97.1818 8.65767 97.3636 8.80256C97.5455 8.94744 97.8295 9.06818 98.2159 9.16477L99.1875 9.40341C99.7727 9.54545 100.209 9.76278 100.496 10.0554C100.783 10.3452 100.926 10.7187 100.926 11.1761C100.926 11.5511 100.818 11.8864 100.602 12.1818C100.389 12.4773 100.091 12.7102 99.7074 12.8807C99.3239 13.0511 98.8778 13.1364 98.3693 13.1364C97.7017 13.1364 97.1491 12.9915 96.7116 12.7017C96.2741 12.4119 95.9972 11.9886 95.8807 11.4318L96.8352 11.1932C96.9261 11.5455 97.098 11.8097 97.3509 11.9858C97.6065 12.1619 97.9403 12.25 98.3523 12.25C98.821 12.25 99.1932 12.1506 99.4688 11.9517C99.7472 11.75 99.8864 11.5085 99.8864 11.2273C99.8864 11 99.8068 10.8097 99.6477 10.6562C99.4886 10.5 99.2443 10.3835 98.9148 10.3068L97.8239 10.0511C97.2244 9.90909 96.7841 9.68892 96.5028 9.39062C96.2244 9.08949 96.0852 8.71307 96.0852 8.26136C96.0852 7.89205 96.1889 7.56534 96.3963 7.28125C96.6065 6.99716 96.892 6.77415 97.2528 6.61222C97.6165 6.45028 98.0284 6.36932 98.4886 6.36932C99.1364 6.36932 99.6449 6.51136 100.014 6.79545C100.386 7.07955 100.651 7.45455 100.807 7.92045ZM105.815 13V6.45455H106.787V7.47727H106.872C107.008 7.12784 107.228 6.85653 107.532 6.66335C107.836 6.46733 108.201 6.36932 108.627 6.36932C109.059 6.36932 109.419 6.46733 109.706 6.66335C109.995 6.85653 110.221 7.12784 110.383 7.47727H110.451C110.619 7.1392 110.87 6.87074 111.206 6.67188C111.541 6.47017 111.943 6.36932 112.412 6.36932C112.997 6.36932 113.475 6.55256 113.848 6.91903C114.22 7.28267 114.406 7.84943 114.406 8.61932V13H113.4V8.61932C113.4 8.13636 113.268 7.79119 113.004 7.58381C112.74 7.37642 112.429 7.27273 112.071 7.27273C111.61 7.27273 111.254 7.41193 111.001 7.69034C110.748 7.96591 110.622 8.31534 110.622 8.73864V13H109.599V8.51705C109.599 8.14489 109.478 7.84517 109.237 7.6179C108.995 7.38778 108.684 7.27273 108.304 7.27273C108.042 7.27273 107.798 7.34233 107.571 7.48153C107.346 7.62074 107.164 7.81392 107.025 8.06108C106.889 8.3054 106.821 8.58807 106.821 8.90909V13H105.815ZM116.245 13V6.45455H117.25V13H116.245ZM116.756 5.36364C116.56 5.36364 116.391 5.29688 116.249 5.16335C116.11 5.02983 116.04 4.86932 116.04 4.68182C116.04 4.49432 116.11 4.33381 116.249 4.20028C116.391 4.06676 116.56 4 116.756 4C116.952 4 117.12 4.06676 117.259 4.20028C117.401 4.33381 117.472 4.49432 117.472 4.68182C117.472 4.86932 117.401 5.02983 117.259 5.16335C117.12 5.29688 116.952 5.36364 116.756 5.36364ZM120.098 9.0625V13H119.092V6.45455H120.064V7.47727H120.149C120.303 7.14489 120.536 6.87784 120.848 6.67614C121.161 6.47159 121.564 6.36932 122.058 6.36932C122.501 6.36932 122.889 6.46023 123.222 6.64205C123.554 6.82102 123.813 7.09375 123.997 7.46023C124.182 7.82386 124.274 8.28409 124.274 8.84091V13H123.268V8.90909C123.268 8.39489 123.135 7.99432 122.868 7.70739C122.601 7.41761 122.234 7.27273 121.768 7.27273C121.447 7.27273 121.161 7.34233 120.908 7.48153C120.658 7.62074 120.46 7.82386 120.315 8.09091C120.17 8.35795 120.098 8.68182 120.098 9.0625ZM130.237 10.3239V6.45455H131.243V13H130.237V11.892H130.169C130.015 12.2244 129.777 12.5071 129.453 12.7401C129.129 12.9702 128.72 13.0852 128.225 13.0852C127.816 13.0852 127.453 12.9957 127.135 12.8168C126.816 12.6349 126.566 12.3622 126.385 11.9986C126.203 11.6321 126.112 11.1705 126.112 10.6136V6.45455H127.118V10.5455C127.118 11.0227 127.251 11.4034 127.518 11.6875C127.788 11.9716 128.132 12.1136 128.549 12.1136C128.799 12.1136 129.054 12.0497 129.312 11.9219C129.574 11.794 129.792 11.598 129.968 11.3338C130.147 11.0696 130.237 10.733 130.237 10.3239ZM128.225 5.56818L129.265 3.59091H130.441L129.112 5.56818H128.225ZM137.721 7.92045L136.817 8.17614C136.761 8.02557 136.677 7.87926 136.566 7.73722C136.458 7.59233 136.31 7.47301 136.123 7.37926C135.935 7.28551 135.695 7.23864 135.403 7.23864C135.002 7.23864 134.668 7.33097 134.401 7.51562C134.137 7.69744 134.005 7.92898 134.005 8.21023C134.005 8.46023 134.096 8.65767 134.278 8.80256C134.46 8.94744 134.744 9.06818 135.13 9.16477L136.102 9.40341C136.687 9.54545 137.123 9.76278 137.41 10.0554C137.697 10.3452 137.84 10.7187 137.84 11.1761C137.84 11.5511 137.732 11.8864 137.516 12.1818C137.303 12.4773 137.005 12.7102 136.621 12.8807C136.238 13.0511 135.792 13.1364 135.283 13.1364C134.616 13.1364 134.063 12.9915 133.626 12.7017C133.188 12.4119 132.911 11.9886 132.795 11.4318L133.749 11.1932C133.84 11.5455 134.012 11.8097 134.265 11.9858C134.521 12.1619 134.854 12.25 135.266 12.25C135.735 12.25 136.107 12.1506 136.383 11.9517C136.661 11.75 136.8 11.5085 136.8 11.2273C136.8 11 136.721 10.8097 136.562 10.6562C136.403 10.5 136.158 10.3835 135.829 10.3068L134.738 10.0511C134.138 9.90909 133.698 9.68892 133.417 9.39062C133.138 9.08949 132.999 8.71307 132.999 8.26136C132.999 7.89205 133.103 7.56534 133.31 7.28125C133.521 6.99716 133.806 6.77415 134.167 6.61222C134.531 6.45028 134.942 6.36932 135.403 6.36932C136.05 6.36932 136.559 6.51136 136.928 6.79545C137.3 7.07955 137.565 7.45455 137.721 7.92045ZM142.013 13.1364C141.4 13.1364 140.871 12.9915 140.428 12.7017C139.985 12.4119 139.644 12.0128 139.405 11.5043C139.167 10.9957 139.047 10.4148 139.047 9.76136C139.047 9.09659 139.169 8.50994 139.414 8.00142C139.661 7.49006 140.005 7.09091 140.445 6.80398C140.888 6.5142 141.405 6.36932 141.996 6.36932C142.456 6.36932 142.871 6.45455 143.24 6.625C143.61 6.79545 143.912 7.03409 144.148 7.34091C144.384 7.64773 144.53 8.00568 144.587 8.41477H143.581C143.505 8.11648 143.334 7.85227 143.07 7.62216C142.809 7.3892 142.456 7.27273 142.013 7.27273C141.621 7.27273 141.277 7.375 140.982 7.57955C140.689 7.78125 140.461 8.06676 140.296 8.43608C140.134 8.80256 140.053 9.23295 140.053 9.72727C140.053 10.233 140.132 10.6733 140.292 11.0483C140.453 11.4233 140.681 11.7145 140.973 11.9219C141.269 12.1293 141.615 12.233 142.013 12.233C142.275 12.233 142.512 12.1875 142.725 12.0966C142.938 12.0057 143.118 11.875 143.266 11.7045C143.414 11.5341 143.519 11.3295 143.581 11.0909H144.587C144.53 11.4773 144.39 11.8253 144.165 12.1349C143.944 12.4418 143.65 12.6861 143.283 12.8679C142.919 13.0469 142.496 13.1364 142.013 13.1364ZM150.182 10.3239V6.45455H151.188V13H150.182V11.892H150.114C149.961 12.2244 149.722 12.5071 149.398 12.7401C149.074 12.9702 148.665 13.0852 148.171 13.0852C147.762 13.0852 147.398 12.9957 147.08 12.8168C146.762 12.6349 146.512 12.3622 146.33 11.9986C146.148 11.6321 146.057 11.1705 146.057 10.6136V6.45455H147.063V10.5455C147.063 11.0227 147.196 11.4034 147.463 11.6875C147.733 11.9716 148.077 12.1136 148.495 12.1136C148.745 12.1136 148.999 12.0497 149.257 11.9219C149.519 11.794 149.738 11.598 149.914 11.3338C150.093 11.0696 150.182 10.733 150.182 10.3239ZM154.036 4.27273V13H153.03V4.27273H154.036ZM157.804 13.1534C157.389 13.1534 157.012 13.0753 156.674 12.919C156.336 12.7599 156.068 12.5312 155.869 12.233C155.67 11.9318 155.571 11.5682 155.571 11.142C155.571 10.767 155.645 10.4631 155.792 10.2301C155.94 9.99432 156.137 9.80966 156.385 9.67614C156.632 9.54261 156.904 9.44318 157.203 9.37784C157.504 9.30966 157.806 9.25568 158.11 9.21591C158.508 9.16477 158.831 9.12642 159.078 9.10085C159.328 9.07244 159.51 9.02557 159.623 8.96023C159.74 8.89489 159.798 8.78125 159.798 8.61932V8.58523C159.798 8.16477 159.683 7.83807 159.453 7.60511C159.225 7.37216 158.88 7.25568 158.417 7.25568C157.937 7.25568 157.561 7.3608 157.288 7.57102C157.015 7.78125 156.824 8.00568 156.713 8.24432L155.758 7.90341C155.929 7.50568 156.156 7.19602 156.44 6.97443C156.727 6.75 157.039 6.59375 157.377 6.50568C157.718 6.41477 158.054 6.36932 158.383 6.36932C158.593 6.36932 158.835 6.39489 159.108 6.44602C159.383 6.49432 159.649 6.59517 159.904 6.74858C160.163 6.90199 160.377 7.13352 160.548 7.44318C160.718 7.75284 160.804 8.16761 160.804 8.6875V13H159.798V12.1136H159.747C159.679 12.2557 159.565 12.4077 159.406 12.5696C159.247 12.7315 159.035 12.8693 158.771 12.983C158.507 13.0966 158.184 13.1534 157.804 13.1534ZM157.957 12.25C158.355 12.25 158.69 12.1719 158.963 12.0156C159.238 11.8594 159.446 11.6577 159.585 11.4105C159.727 11.1634 159.798 10.9034 159.798 10.6307V9.71023C159.755 9.76136 159.662 9.80824 159.517 9.85085C159.375 9.89062 159.21 9.92614 159.022 9.95739C158.838 9.9858 158.657 10.0114 158.481 10.0341C158.308 10.054 158.167 10.071 158.059 10.0852C157.798 10.1193 157.554 10.1747 157.326 10.2514C157.102 10.3253 156.92 10.4375 156.781 10.5881C156.645 10.7358 156.576 10.9375 156.576 11.1932C156.576 11.5426 156.706 11.8068 156.964 11.9858C157.225 12.1619 157.556 12.25 157.957 12.25ZM167.276 7.92045L166.372 8.17614C166.315 8.02557 166.232 7.87926 166.121 7.73722C166.013 7.59233 165.865 7.47301 165.678 7.37926C165.49 7.28551 165.25 7.23864 164.957 7.23864C164.557 7.23864 164.223 7.33097 163.956 7.51562C163.692 7.69744 163.56 7.92898 163.56 8.21023C163.56 8.46023 163.651 8.65767 163.832 8.80256C164.014 8.94744 164.298 9.06818 164.685 9.16477L165.656 9.40341C166.241 9.54545 166.678 9.76278 166.964 10.0554C167.251 10.3452 167.395 10.7187 167.395 11.1761C167.395 11.5511 167.287 11.8864 167.071 12.1818C166.858 12.4773 166.56 12.7102 166.176 12.8807C165.793 13.0511 165.347 13.1364 164.838 13.1364C164.17 13.1364 163.618 12.9915 163.18 12.7017C162.743 12.4119 162.466 11.9886 162.349 11.4318L163.304 11.1932C163.395 11.5455 163.567 11.8097 163.82 11.9858C164.075 12.1619 164.409 12.25 164.821 12.25C165.29 12.25 165.662 12.1506 165.938 11.9517C166.216 11.75 166.355 11.5085 166.355 11.2273C166.355 11 166.276 10.8097 166.116 10.6562C165.957 10.5 165.713 10.3835 165.384 10.3068L164.293 10.0511C163.693 9.90909 163.253 9.68892 162.972 9.39062C162.693 9.08949 162.554 8.71307 162.554 8.26136C162.554 7.89205 162.658 7.56534 162.865 7.28125C163.075 6.99716 163.361 6.77415 163.722 6.61222C164.085 6.45028 164.497 6.36932 164.957 6.36932C165.605 6.36932 166.114 6.51136 166.483 6.79545C166.855 7.07955 167.119 7.45455 167.276 7.92045ZM175.028 13.1364C174.397 13.1364 173.853 12.9972 173.396 12.7188C172.941 12.4375 172.591 12.0455 172.343 11.5426C172.099 11.0369 171.977 10.4489 171.977 9.77841C171.977 9.10795 172.099 8.51705 172.343 8.00568C172.591 7.49148 172.934 7.09091 173.375 6.80398C173.818 6.5142 174.335 6.36932 174.926 6.36932C175.267 6.36932 175.603 6.42614 175.936 6.53977C176.268 6.65341 176.571 6.83807 176.843 7.09375C177.116 7.34659 177.333 7.68182 177.495 8.09943C177.657 8.51705 177.738 9.03125 177.738 9.64205V10.0682H172.693V9.19886H176.716C176.716 8.82955 176.642 8.5 176.494 8.21023C176.349 7.92045 176.142 7.69176 175.872 7.52415C175.605 7.35653 175.289 7.27273 174.926 7.27273C174.525 7.27273 174.179 7.37216 173.886 7.57102C173.596 7.76705 173.373 8.02273 173.217 8.33807C173.061 8.65341 172.983 8.99148 172.983 9.35227V9.93182C172.983 10.4261 173.068 10.8452 173.238 11.1889C173.412 11.5298 173.652 11.7898 173.958 11.9688C174.265 12.1449 174.622 12.233 175.028 12.233C175.292 12.233 175.531 12.196 175.744 12.1222C175.96 12.0455 176.146 11.9318 176.302 11.7812C176.458 11.6278 176.579 11.4375 176.664 11.2102L177.636 11.483C177.534 11.8125 177.362 12.1023 177.12 12.3523C176.879 12.5994 176.581 12.7926 176.225 12.9318C175.87 13.0682 175.471 13.1364 175.028 13.1364ZM187.279 7.92045L186.376 8.17614C186.319 8.02557 186.235 7.87926 186.125 7.73722C186.017 7.59233 185.869 7.47301 185.681 7.37926C185.494 7.28551 185.254 7.23864 184.961 7.23864C184.561 7.23864 184.227 7.33097 183.96 7.51562C183.696 7.69744 183.564 7.92898 183.564 8.21023C183.564 8.46023 183.654 8.65767 183.836 8.80256C184.018 8.94744 184.302 9.06818 184.689 9.16477L185.66 9.40341C186.245 9.54545 186.681 9.76278 186.968 10.0554C187.255 10.3452 187.399 10.7187 187.399 11.1761C187.399 11.5511 187.291 11.8864 187.075 12.1818C186.862 12.4773 186.564 12.7102 186.18 12.8807C185.797 13.0511 185.35 13.1364 184.842 13.1364C184.174 13.1364 183.622 12.9915 183.184 12.7017C182.747 12.4119 182.47 11.9886 182.353 11.4318L183.308 11.1932C183.399 11.5455 183.571 11.8097 183.824 11.9858C184.079 12.1619 184.413 12.25 184.825 12.25C185.294 12.25 185.666 12.1506 185.941 11.9517C186.22 11.75 186.359 11.5085 186.359 11.2273C186.359 11 186.279 10.8097 186.12 10.6562C185.961 10.5 185.717 10.3835 185.387 10.3068L184.297 10.0511C183.697 9.90909 183.257 9.68892 182.975 9.39062C182.697 9.08949 182.558 8.71307 182.558 8.26136C182.558 7.89205 182.662 7.56534 182.869 7.28125C183.079 6.99716 183.365 6.77415 183.725 6.61222C184.089 6.45028 184.501 6.36932 184.961 6.36932C185.609 6.36932 186.118 6.51136 186.487 6.79545C186.859 7.07955 187.123 7.45455 187.279 7.92045ZM191.657 13.1364C191.026 13.1364 190.482 12.9972 190.025 12.7188C189.57 12.4375 189.219 12.0455 188.972 11.5426C188.728 11.0369 188.606 10.4489 188.606 9.77841C188.606 9.10795 188.728 8.51705 188.972 8.00568C189.219 7.49148 189.563 7.09091 190.004 6.80398C190.447 6.5142 190.964 6.36932 191.555 6.36932C191.896 6.36932 192.232 6.42614 192.565 6.53977C192.897 6.65341 193.2 6.83807 193.472 7.09375C193.745 7.34659 193.962 7.68182 194.124 8.09943C194.286 8.51705 194.367 9.03125 194.367 9.64205V10.0682H189.322V9.19886H193.344C193.344 8.82955 193.271 8.5 193.123 8.21023C192.978 7.92045 192.771 7.69176 192.501 7.52415C192.234 7.35653 191.918 7.27273 191.555 7.27273C191.154 7.27273 190.808 7.37216 190.515 7.57102C190.225 7.76705 190.002 8.02273 189.846 8.33807C189.69 8.65341 189.612 8.99148 189.612 9.35227V9.93182C189.612 10.4261 189.697 10.8452 189.867 11.1889C190.04 11.5298 190.281 11.7898 190.587 11.9688C190.894 12.1449 191.251 12.233 191.657 12.233C191.921 12.233 192.16 12.196 192.373 12.1222C192.589 12.0455 192.775 11.9318 192.931 11.7812C193.087 11.6278 193.208 11.4375 193.293 11.2102L194.265 11.483C194.163 11.8125 193.991 12.1023 193.749 12.3523C193.508 12.5994 193.21 12.7926 192.854 12.9318C192.499 13.0682 192.1 13.1364 191.657 13.1364ZM195.897 13V6.45455H196.869V7.47727H196.954C197.09 7.12784 197.31 6.85653 197.614 6.66335C197.918 6.46733 198.283 6.36932 198.71 6.36932C199.141 6.36932 199.501 6.46733 199.788 6.66335C200.077 6.85653 200.303 7.12784 200.465 7.47727H200.533C200.701 7.1392 200.952 6.87074 201.288 6.67188C201.623 6.47017 202.025 6.36932 202.494 6.36932C203.079 6.36932 203.558 6.55256 203.93 6.91903C204.302 7.28267 204.488 7.84943 204.488 8.61932V13H203.482V8.61932C203.482 8.13636 203.35 7.79119 203.086 7.58381C202.822 7.37642 202.511 7.27273 202.153 7.27273C201.692 7.27273 201.336 7.41193 201.083 7.69034C200.83 7.96591 200.704 8.31534 200.704 8.73864V13H199.681V8.51705C199.681 8.14489 199.56 7.84517 199.319 7.6179C199.077 7.38778 198.766 7.27273 198.386 7.27273C198.124 7.27273 197.88 7.34233 197.653 7.48153C197.428 7.62074 197.246 7.81392 197.107 8.06108C196.971 8.3054 196.903 8.58807 196.903 8.90909V13H195.897ZM211.628 13.1534C211.213 13.1534 210.837 13.0753 210.499 12.919C210.161 12.7599 209.892 12.5312 209.693 12.233C209.494 11.9318 209.395 11.5682 209.395 11.142C209.395 10.767 209.469 10.4631 209.616 10.2301C209.764 9.99432 209.962 9.80966 210.209 9.67614C210.456 9.54261 210.729 9.44318 211.027 9.37784C211.328 9.30966 211.631 9.25568 211.935 9.21591C212.332 9.16477 212.655 9.12642 212.902 9.10085C213.152 9.07244 213.334 9.02557 213.447 8.96023C213.564 8.89489 213.622 8.78125 213.622 8.61932V8.58523C213.622 8.16477 213.507 7.83807 213.277 7.60511C213.05 7.37216 212.705 7.25568 212.241 7.25568C211.761 7.25568 211.385 7.3608 211.112 7.57102C210.839 7.78125 210.648 8.00568 210.537 8.24432L209.582 7.90341C209.753 7.50568 209.98 7.19602 210.264 6.97443C210.551 6.75 210.864 6.59375 211.202 6.50568C211.543 6.41477 211.878 6.36932 212.207 6.36932C212.418 6.36932 212.659 6.39489 212.932 6.44602C213.207 6.49432 213.473 6.59517 213.729 6.74858C213.987 6.90199 214.202 7.13352 214.372 7.44318C214.543 7.75284 214.628 8.16761 214.628 8.6875V13H213.622V12.1136H213.571C213.503 12.2557 213.389 12.4077 213.23 12.5696C213.071 12.7315 212.859 12.8693 212.595 12.983C212.331 13.0966 212.009 13.1534 211.628 13.1534ZM211.781 12.25C212.179 12.25 212.514 12.1719 212.787 12.0156C213.063 11.8594 213.27 11.6577 213.409 11.4105C213.551 11.1634 213.622 10.9034 213.622 10.6307V9.71023C213.58 9.76136 213.486 9.80824 213.341 9.85085C213.199 9.89062 213.034 9.92614 212.847 9.95739C212.662 9.9858 212.482 10.0114 212.305 10.0341C212.132 10.054 211.991 10.071 211.884 10.0852C211.622 10.1193 211.378 10.1747 211.151 10.2514C210.926 10.3253 210.744 10.4375 210.605 10.5881C210.469 10.7358 210.401 10.9375 210.401 11.1932C210.401 11.5426 210.53 11.8068 210.788 11.9858C211.05 12.1619 211.381 12.25 211.781 12.25ZM219.123 13.1364C218.509 13.1364 217.98 12.9915 217.537 12.7017C217.094 12.4119 216.753 12.0128 216.515 11.5043C216.276 10.9957 216.157 10.4148 216.157 9.76136C216.157 9.09659 216.279 8.50994 216.523 8.00142C216.77 7.49006 217.114 7.09091 217.554 6.80398C217.998 6.5142 218.515 6.36932 219.105 6.36932C219.566 6.36932 219.98 6.45455 220.35 6.625C220.719 6.79545 221.022 7.03409 221.257 7.34091C221.493 7.64773 221.64 8.00568 221.696 8.41477H220.691C220.614 8.11648 220.444 7.85227 220.179 7.62216C219.918 7.3892 219.566 7.27273 219.123 7.27273C218.73 7.27273 218.387 7.375 218.091 7.57955C217.799 7.78125 217.57 8.06676 217.405 8.43608C217.243 8.80256 217.162 9.23295 217.162 9.72727C217.162 10.233 217.242 10.6733 217.401 11.0483C217.563 11.4233 217.79 11.7145 218.083 11.9219C218.378 12.1293 218.725 12.233 219.123 12.233C219.384 12.233 219.621 12.1875 219.834 12.0966C220.047 12.0057 220.228 11.875 220.375 11.7045C220.523 11.5341 220.628 11.3295 220.691 11.0909H221.696C221.64 11.4773 221.499 11.8253 221.275 12.1349C221.053 12.4418 220.759 12.6861 220.392 12.8679C220.029 13.0469 219.605 13.1364 219.123 13.1364ZM225.911 13.1364C225.28 13.1364 224.736 12.9972 224.279 12.7188C223.824 12.4375 223.473 12.0455 223.226 11.5426C222.982 11.0369 222.86 10.4489 222.86 9.77841C222.86 9.10795 222.982 8.51705 223.226 8.00568C223.473 7.49148 223.817 7.09091 224.257 6.80398C224.701 6.5142 225.218 6.36932 225.809 6.36932C226.15 6.36932 226.486 6.42614 226.819 6.53977C227.151 6.65341 227.453 6.83807 227.726 7.09375C227.999 7.34659 228.216 7.68182 228.378 8.09943C228.54 8.51705 228.621 9.03125 228.621 9.64205V10.0682H223.576V9.19886H227.598C227.598 8.82955 227.525 8.5 227.377 8.21023C227.232 7.92045 227.025 7.69176 226.755 7.52415C226.488 7.35653 226.172 7.27273 225.809 7.27273C225.408 7.27273 225.061 7.37216 224.769 7.57102C224.479 7.76705 224.256 8.02273 224.1 8.33807C223.944 8.65341 223.865 8.99148 223.865 9.35227V9.93182C223.865 10.4261 223.951 10.8452 224.121 11.1889C224.294 11.5298 224.534 11.7898 224.841 11.9688C225.148 12.1449 225.505 12.233 225.911 12.233C226.175 12.233 226.414 12.196 226.627 12.1222C226.843 12.0455 227.029 11.9318 227.185 11.7812C227.341 11.6278 227.462 11.4375 227.547 11.2102L228.519 11.483C228.417 11.8125 228.245 12.1023 228.003 12.3523C227.762 12.5994 227.463 12.7926 227.108 12.9318C226.753 13.0682 226.354 13.1364 225.911 13.1364ZM231.157 9.0625V13H230.151V6.45455H231.123V7.47727H231.208C231.361 7.14489 231.594 6.87784 231.907 6.67614C232.219 6.47159 232.623 6.36932 233.117 6.36932C233.56 6.36932 233.948 6.46023 234.28 6.64205C234.613 6.82102 234.871 7.09375 235.056 7.46023C235.24 7.82386 235.333 8.28409 235.333 8.84091V13H234.327V8.90909C234.327 8.39489 234.194 7.99432 233.926 7.70739C233.659 7.41761 233.293 7.27273 232.827 7.27273C232.506 7.27273 232.219 7.34233 231.966 7.48153C231.716 7.62074 231.519 7.82386 231.374 8.09091C231.229 8.35795 231.157 8.68182 231.157 9.0625ZM240.017 6.45455V7.30682H236.625V6.45455H240.017ZM237.614 4.88636H238.619V11.125C238.619 11.4091 238.661 11.6222 238.743 11.7642C238.828 11.9034 238.936 11.9972 239.067 12.0455C239.2 12.0909 239.341 12.1136 239.489 12.1136C239.599 12.1136 239.69 12.108 239.761 12.0966C239.832 12.0824 239.889 12.071 239.932 12.0625L240.136 12.9659C240.068 12.9915 239.973 13.017 239.851 13.0426C239.729 13.071 239.574 13.0852 239.386 13.0852C239.102 13.0852 238.824 13.0241 238.551 12.902C238.281 12.7798 238.057 12.5938 237.878 12.3438C237.702 12.0938 237.614 11.7784 237.614 11.3977V4.88636ZM244.119 13.1364C243.528 13.1364 243.009 12.9957 242.563 12.7145C242.12 12.4332 241.773 12.0398 241.523 11.5341C241.276 11.0284 241.153 10.4375 241.153 9.76136C241.153 9.07955 241.276 8.48437 241.523 7.97585C241.773 7.46733 242.12 7.07244 242.563 6.79119C243.009 6.50994 243.528 6.36932 244.119 6.36932C244.71 6.36932 245.227 6.50994 245.67 6.79119C246.116 7.07244 246.462 7.46733 246.71 7.97585C246.96 8.48437 247.085 9.07955 247.085 9.76136C247.085 10.4375 246.96 11.0284 246.71 11.5341C246.462 12.0398 246.116 12.4332 245.67 12.7145C245.227 12.9957 244.71 13.1364 244.119 13.1364ZM244.119 12.233C244.567 12.233 244.937 12.1179 245.227 11.8878C245.516 11.6577 245.731 11.3551 245.87 10.9801C246.009 10.6051 246.079 10.1989 246.079 9.76136C246.079 9.32386 246.009 8.91619 245.87 8.53835C245.731 8.16051 245.516 7.85511 245.227 7.62216C244.937 7.3892 244.567 7.27273 244.119 7.27273C243.67 7.27273 243.3 7.3892 243.011 7.62216C242.721 7.85511 242.506 8.16051 242.367 8.53835C242.228 8.91619 242.158 9.32386 242.158 9.76136C242.158 10.1989 242.228 10.6051 242.367 10.9801C242.506 11.3551 242.721 11.6577 243.011 11.8878C243.3 12.1179 243.67 12.233 244.119 12.233ZM249.353 13.0682C249.142 13.0682 248.962 12.9929 248.811 12.8423C248.661 12.6918 248.586 12.5114 248.586 12.3011C248.586 12.0909 248.661 11.9105 248.811 11.7599C248.962 11.6094 249.142 11.5341 249.353 11.5341C249.563 11.5341 249.743 11.6094 249.894 11.7599C250.044 11.9105 250.12 12.0909 250.12 12.3011C250.12 12.4403 250.084 12.5682 250.013 12.6847C249.945 12.8011 249.853 12.8949 249.736 12.9659C249.623 13.0341 249.495 13.0682 249.353 13.0682Z" fill="#495057"/>
</svg>
