<svg width="680" height="67" viewBox="0 0 680 67" fill="none" xmlns="http://www.w3.org/2000/svg">
<path d="M0 24C0 10.7452 10.7452 0 24 0H304C317.255 0 328 10.7452 328 24V43C328 56.2548 317.255 67 304 67H24C10.7452 67 0 56.2548 0 43V24Z" fill="#0A3871"/>
<path d="M128.968 31H127.559C127.476 30.5947 127.33 30.2386 127.121 29.9318C126.917 29.625 126.667 29.3674 126.371 29.1591C126.08 28.947 125.756 28.7879 125.4 28.6818C125.044 28.5758 124.673 28.5227 124.286 28.5227C123.582 28.5227 122.943 28.7008 122.371 29.0568C121.803 29.4129 121.351 29.9375 121.013 30.6307C120.68 31.3239 120.513 32.1742 120.513 33.1818C120.513 34.1894 120.68 35.0398 121.013 35.733C121.351 36.4261 121.803 36.9508 122.371 37.3068C122.943 37.6629 123.582 37.8409 124.286 37.8409C124.673 37.8409 125.044 37.7879 125.4 37.6818C125.756 37.5758 126.08 37.4186 126.371 37.2102C126.667 36.9981 126.917 36.7386 127.121 36.4318C127.33 36.1212 127.476 35.7652 127.559 35.3636H128.968C128.862 35.9583 128.669 36.4905 128.388 36.9602C128.108 37.4299 127.76 37.8295 127.343 38.1591C126.926 38.4848 126.459 38.733 125.94 38.9034C125.424 39.0739 124.873 39.1591 124.286 39.1591C123.294 39.1591 122.411 38.9167 121.638 38.4318C120.866 37.947 120.258 37.2576 119.815 36.3636C119.371 35.4697 119.15 34.4091 119.15 33.1818C119.15 31.9545 119.371 30.8939 119.815 30C120.258 29.1061 120.866 28.4167 121.638 27.9318C122.411 27.447 123.294 27.2045 124.286 27.2045C124.873 27.2045 125.424 27.2898 125.94 27.4602C126.459 27.6307 126.926 27.8807 127.343 28.2102C127.76 28.536 128.108 28.9337 128.388 29.4034C128.669 29.8693 128.862 30.4015 128.968 31ZM131.063 39V30.2727H132.359V31.5909H132.45C132.609 31.1591 132.897 30.8087 133.313 30.5398C133.73 30.2708 134.2 30.1364 134.722 30.1364C134.821 30.1364 134.944 30.1383 135.092 30.142C135.239 30.1458 135.351 30.1515 135.427 30.1591V31.5227C135.381 31.5114 135.277 31.4943 135.114 31.4716C134.955 31.4451 134.787 31.4318 134.609 31.4318C134.184 31.4318 133.806 31.5208 133.472 31.6989C133.143 31.8731 132.881 32.1155 132.688 32.4261C132.499 32.733 132.404 33.0833 132.404 33.4773V39H131.063ZM137.016 39V30.2727H138.357V39H137.016ZM137.698 28.8182C137.437 28.8182 137.211 28.7292 137.022 28.5511C136.836 28.3731 136.744 28.1591 136.744 27.9091C136.744 27.6591 136.836 27.4451 137.022 27.267C137.211 27.089 137.437 27 137.698 27C137.96 27 138.183 27.089 138.369 27.267C138.558 27.4451 138.653 27.6591 138.653 27.9091C138.653 28.1591 138.558 28.3731 138.369 28.5511C138.183 28.7292 137.96 28.8182 137.698 28.8182ZM140.813 42.2727V30.2727H142.109V31.6591H142.268C142.366 31.5076 142.503 31.3144 142.677 31.0795C142.855 30.8409 143.109 30.6288 143.438 30.4432C143.772 30.2538 144.222 30.1591 144.79 30.1591C145.525 30.1591 146.173 30.3428 146.734 30.7102C147.294 31.0777 147.732 31.5985 148.046 32.2727C148.361 32.947 148.518 33.7424 148.518 34.6591C148.518 35.5833 148.361 36.3845 148.046 37.0625C147.732 37.7367 147.296 38.2595 146.739 38.6307C146.183 38.9981 145.54 39.1818 144.813 39.1818C144.253 39.1818 143.804 39.089 143.467 38.9034C143.129 38.714 142.87 38.5 142.688 38.2614C142.506 38.0189 142.366 37.8182 142.268 37.6591H142.154V42.2727H140.813ZM142.131 34.6364C142.131 35.2955 142.228 35.8769 142.421 36.3807C142.614 36.8807 142.897 37.2727 143.268 37.5568C143.639 37.8371 144.094 37.9773 144.631 37.9773C145.192 37.9773 145.66 37.8295 146.035 37.5341C146.414 37.2348 146.698 36.8333 146.887 36.3295C147.08 35.822 147.177 35.2576 147.177 34.6364C147.177 34.0227 147.082 33.4697 146.893 32.9773C146.707 32.4811 146.425 32.089 146.046 31.8011C145.671 31.5095 145.2 31.3636 144.631 31.3636C144.086 31.3636 143.628 31.5019 143.256 31.7784C142.885 32.0511 142.605 32.4337 142.415 32.9261C142.226 33.4148 142.131 33.9848 142.131 34.6364ZM154.359 30.2727V31.4091H149.836V30.2727H154.359ZM151.154 28.1818H152.495V36.5C152.495 36.8788 152.55 37.1629 152.66 37.3523C152.773 37.5379 152.917 37.6629 153.092 37.7273C153.27 37.7879 153.457 37.8182 153.654 37.8182C153.802 37.8182 153.923 37.8106 154.018 37.7955C154.112 37.7765 154.188 37.7614 154.245 37.75L154.518 38.9545C154.427 38.9886 154.3 39.0227 154.137 39.0568C153.974 39.0947 153.768 39.1136 153.518 39.1136C153.139 39.1136 152.768 39.0322 152.404 38.8693C152.044 38.7064 151.745 38.4583 151.506 38.125C151.272 37.7917 151.154 37.3712 151.154 36.8636V28.1818ZM159.827 39.1818C159.04 39.1818 158.348 38.9943 157.754 38.6193C157.163 38.2443 156.701 37.7197 156.367 37.0455C156.038 36.3712 155.873 35.5833 155.873 34.6818C155.873 33.7727 156.038 32.9792 156.367 32.3011C156.701 31.6231 157.163 31.0966 157.754 30.7216C158.348 30.3466 159.04 30.1591 159.827 30.1591C160.615 30.1591 161.305 30.3466 161.896 30.7216C162.49 31.0966 162.952 31.6231 163.282 32.3011C163.615 32.9792 163.782 33.7727 163.782 34.6818C163.782 35.5833 163.615 36.3712 163.282 37.0455C162.952 37.7197 162.49 38.2443 161.896 38.6193C161.305 38.9943 160.615 39.1818 159.827 39.1818ZM159.827 37.9773C160.426 37.9773 160.918 37.8239 161.305 37.517C161.691 37.2102 161.977 36.8068 162.163 36.3068C162.348 35.8068 162.441 35.2652 162.441 34.6818C162.441 34.0985 162.348 33.5549 162.163 33.0511C161.977 32.5473 161.691 32.1402 161.305 31.8295C160.918 31.5189 160.426 31.3636 159.827 31.3636C159.229 31.3636 158.737 31.5189 158.35 31.8295C157.964 32.1402 157.678 32.5473 157.492 33.0511C157.307 33.5549 157.214 34.0985 157.214 34.6818C157.214 35.2652 157.307 35.8068 157.492 36.3068C157.678 36.8068 157.964 37.2102 158.35 37.517C158.737 37.8239 159.229 37.9773 159.827 37.9773ZM169.352 42.4545C168.704 42.4545 168.147 42.3712 167.681 42.2045C167.215 42.0417 166.827 41.8258 166.516 41.5568C166.21 41.2917 165.965 41.0076 165.783 40.7045L166.852 39.9545C166.973 40.1136 167.126 40.2955 167.312 40.5C167.497 40.7083 167.751 40.8883 168.073 41.0398C168.399 41.1951 168.825 41.2727 169.352 41.2727C170.056 41.2727 170.638 41.1023 171.096 40.7614C171.554 40.4205 171.783 39.8864 171.783 39.1591V37.3864H171.67C171.571 37.5455 171.431 37.7424 171.249 37.9773C171.071 38.2083 170.814 38.4148 170.477 38.5966C170.143 38.7746 169.692 38.8636 169.124 38.8636C168.42 38.8636 167.787 38.697 167.227 38.3636C166.67 38.0303 166.228 37.5455 165.903 36.9091C165.581 36.2727 165.42 35.5 165.42 34.5909C165.42 33.697 165.577 32.9186 165.891 32.2557C166.206 31.589 166.643 31.0739 167.204 30.7102C167.764 30.3428 168.412 30.1591 169.147 30.1591C169.715 30.1591 170.166 30.2538 170.499 30.4432C170.836 30.6288 171.094 30.8409 171.272 31.0795C171.454 31.3144 171.594 31.5076 171.692 31.6591H171.829V30.2727H173.124V39.25C173.124 40 172.954 40.6098 172.613 41.0795C172.276 41.553 171.821 41.8996 171.249 42.1193C170.681 42.3428 170.049 42.4545 169.352 42.4545ZM169.306 37.6591C169.844 37.6591 170.299 37.536 170.67 37.2898C171.041 37.0436 171.323 36.6894 171.516 36.2273C171.71 35.7652 171.806 35.2121 171.806 34.5682C171.806 33.9394 171.711 33.3845 171.522 32.9034C171.333 32.4223 171.052 32.0455 170.681 31.7727C170.31 31.5 169.852 31.3636 169.306 31.3636C168.738 31.3636 168.264 31.5076 167.886 31.7955C167.511 32.0833 167.228 32.4697 167.039 32.9545C166.853 33.4394 166.761 33.9773 166.761 34.5682C166.761 35.1742 166.855 35.7102 167.045 36.1761C167.238 36.6383 167.522 37.0019 167.897 37.267C168.276 37.5284 168.746 37.6591 169.306 37.6591ZM175.579 39V30.2727H176.874V31.5909H176.965C177.124 31.1591 177.412 30.8087 177.829 30.5398C178.246 30.2708 178.715 30.1364 179.238 30.1364C179.336 30.1364 179.46 30.1383 179.607 30.142C179.755 30.1458 179.867 30.1515 179.942 30.1591V31.5227C179.897 31.5114 179.793 31.4943 179.63 31.4716C179.471 31.4451 179.302 31.4318 179.124 31.4318C178.7 31.4318 178.321 31.5208 177.988 31.6989C177.658 31.8731 177.397 32.1155 177.204 32.4261C177.014 32.733 176.92 33.0833 176.92 33.4773V39H175.579ZM184.1 39.2045C183.547 39.2045 183.045 39.1004 182.594 38.892C182.144 38.6799 181.786 38.375 181.521 37.9773C181.255 37.5758 181.123 37.0909 181.123 36.5227C181.123 36.0227 181.221 35.6174 181.418 35.3068C181.615 34.9924 181.879 34.7462 182.208 34.5682C182.538 34.3902 182.901 34.2576 183.299 34.1705C183.701 34.0795 184.104 34.0076 184.509 33.9545C185.04 33.8864 185.469 33.8352 185.799 33.8011C186.132 33.7633 186.375 33.7008 186.526 33.6136C186.682 33.5265 186.759 33.375 186.759 33.1591V33.1136C186.759 32.553 186.606 32.1174 186.299 31.8068C185.996 31.4962 185.536 31.3409 184.918 31.3409C184.278 31.3409 183.776 31.4811 183.413 31.7614C183.049 32.0417 182.793 32.3409 182.646 32.6591L181.373 32.2045C181.6 31.6742 181.903 31.2614 182.282 30.9659C182.665 30.6667 183.081 30.4583 183.532 30.3409C183.987 30.2197 184.433 30.1591 184.873 30.1591C185.153 30.1591 185.475 30.1932 185.839 30.2614C186.206 30.3258 186.56 30.4602 186.901 30.6648C187.246 30.8693 187.532 31.178 187.759 31.5909C187.987 32.0038 188.1 32.5568 188.1 33.25V39H186.759V37.8182H186.691C186.6 38.0076 186.449 38.2102 186.237 38.4261C186.024 38.642 185.742 38.8258 185.39 38.9773C185.038 39.1288 184.608 39.2045 184.1 39.2045ZM184.305 38C184.835 38 185.282 37.8958 185.646 37.6875C186.013 37.4792 186.29 37.2102 186.475 36.8807C186.665 36.5511 186.759 36.2045 186.759 35.8409V34.6136C186.702 34.6818 186.577 34.7443 186.384 34.8011C186.195 34.8542 185.975 34.9015 185.725 34.9432C185.479 34.9811 185.238 35.0152 185.004 35.0455C184.772 35.072 184.585 35.0947 184.441 35.1136C184.093 35.1591 183.767 35.233 183.464 35.3352C183.165 35.4337 182.922 35.5833 182.737 35.7841C182.555 35.9811 182.464 36.25 182.464 36.5909C182.464 37.0568 182.636 37.4091 182.981 37.6477C183.329 37.8826 183.771 38 184.305 38ZM194.434 30.2727V31.4091H189.729V30.2727H194.434ZM191.138 39V29.0682C191.138 28.5682 191.256 28.1515 191.491 27.8182C191.726 27.4848 192.031 27.2348 192.406 27.0682C192.781 26.9015 193.176 26.8182 193.593 26.8182C193.923 26.8182 194.192 26.8447 194.4 26.8977C194.608 26.9508 194.763 27 194.866 27.0455L194.479 28.2045C194.411 28.1818 194.317 28.1534 194.195 28.1193C194.078 28.0852 193.923 28.0682 193.729 28.0682C193.286 28.0682 192.966 28.1799 192.769 28.4034C192.576 28.6269 192.479 28.9545 192.479 29.3864V39H191.138ZM198.631 39.2045C198.078 39.2045 197.576 39.1004 197.126 38.892C196.675 38.6799 196.317 38.375 196.052 37.9773C195.787 37.5758 195.654 37.0909 195.654 36.5227C195.654 36.0227 195.753 35.6174 195.95 35.3068C196.147 34.9924 196.41 34.7462 196.739 34.5682C197.069 34.3902 197.433 34.2576 197.83 34.1705C198.232 34.0795 198.635 34.0076 199.04 33.9545C199.571 33.8864 200.001 33.8352 200.33 33.8011C200.664 33.7633 200.906 33.7008 201.058 33.6136C201.213 33.5265 201.29 33.375 201.29 33.1591V33.1136C201.29 32.553 201.137 32.1174 200.83 31.8068C200.527 31.4962 200.067 31.3409 199.45 31.3409C198.809 31.3409 198.308 31.4811 197.944 31.7614C197.58 32.0417 197.325 32.3409 197.177 32.6591L195.904 32.2045C196.131 31.6742 196.434 31.2614 196.813 30.9659C197.196 30.6667 197.612 30.4583 198.063 30.3409C198.518 30.2197 198.965 30.1591 199.404 30.1591C199.684 30.1591 200.006 30.1932 200.37 30.2614C200.737 30.3258 201.092 30.4602 201.433 30.6648C201.777 30.8693 202.063 31.178 202.29 31.5909C202.518 32.0038 202.631 32.5568 202.631 33.25V39H201.29V37.8182H201.222C201.131 38.0076 200.98 38.2102 200.768 38.4261C200.556 38.642 200.273 38.8258 199.921 38.9773C199.569 39.1288 199.139 39.2045 198.631 39.2045ZM198.836 38C199.366 38 199.813 37.8958 200.177 37.6875C200.544 37.4792 200.821 37.2102 201.006 36.8807C201.196 36.5511 201.29 36.2045 201.29 35.8409V34.6136C201.234 34.6818 201.109 34.7443 200.915 34.8011C200.726 34.8542 200.506 34.9015 200.256 34.9432C200.01 34.9811 199.77 35.0152 199.535 35.0455C199.304 35.072 199.116 35.0947 198.972 35.1136C198.624 35.1591 198.298 35.233 197.995 35.3352C197.696 35.4337 197.453 35.5833 197.268 35.7841C197.086 35.9811 196.995 36.25 196.995 36.5909C196.995 37.0568 197.167 37.4091 197.512 37.6477C197.861 37.8826 198.302 38 198.836 38ZM205.079 39V30.2727H206.374V31.5909H206.465C206.624 31.1591 206.912 30.8087 207.329 30.5398C207.746 30.2708 208.215 30.1364 208.738 30.1364C208.836 30.1364 208.96 30.1383 209.107 30.142C209.255 30.1458 209.367 30.1515 209.442 30.1591V31.5227C209.397 31.5114 209.293 31.4943 209.13 31.4716C208.971 31.4451 208.802 31.4318 208.624 31.4318C208.2 31.4318 207.821 31.5208 207.488 31.6989C207.158 31.8731 206.897 32.1155 206.704 32.4261C206.514 32.733 206.42 33.0833 206.42 33.4773V39H205.079Z" fill="white"/>
<path d="M352 24C352 10.7452 362.745 0 376 0H656C669.255 0 680 10.7452 680 24V43C680 56.2548 669.255 67 656 67H376C362.745 67 352 56.2548 352 43V24Z" fill="#D8DFE8"/>
<path d="M461.961 39H458.37V27.3636H462.12C463.249 27.3636 464.215 27.5966 465.018 28.0625C465.821 28.5246 466.436 29.1894 466.864 30.0568C467.292 30.9205 467.506 31.9545 467.506 33.1591C467.506 34.3712 467.29 35.4148 466.859 36.2898C466.427 37.161 465.798 37.8314 464.972 38.3011C464.147 38.767 463.143 39 461.961 39ZM459.779 37.75H461.87C462.832 37.75 463.629 37.5644 464.262 37.1932C464.895 36.822 465.366 36.2936 465.677 35.608C465.987 34.9223 466.143 34.1061 466.143 33.1591C466.143 32.2197 465.989 31.411 465.683 30.733C465.376 30.0511 464.917 29.5284 464.308 29.1648C463.698 28.7973 462.938 28.6136 462.029 28.6136H459.779V37.75ZM473.347 39.1818C472.506 39.1818 471.781 38.9962 471.171 38.625C470.565 38.25 470.097 37.7273 469.768 37.0568C469.442 36.3826 469.279 35.5985 469.279 34.7045C469.279 33.8106 469.442 33.0227 469.768 32.3409C470.097 31.6553 470.556 31.1212 471.143 30.7386C471.734 30.3523 472.423 30.1591 473.211 30.1591C473.665 30.1591 474.114 30.2348 474.558 30.3864C475.001 30.5379 475.404 30.7841 475.768 31.125C476.131 31.4621 476.421 31.9091 476.637 32.4659C476.853 33.0227 476.961 33.7083 476.961 34.5227V35.0909H470.234V33.9318H475.597C475.597 33.4394 475.499 33 475.302 32.6136C475.109 32.2273 474.832 31.9223 474.472 31.6989C474.116 31.4754 473.696 31.3636 473.211 31.3636C472.677 31.3636 472.215 31.4962 471.825 31.7614C471.438 32.0227 471.141 32.3636 470.933 32.7841C470.724 33.2045 470.62 33.6553 470.62 34.1364V34.9091C470.62 35.5682 470.734 36.1269 470.961 36.5852C471.192 37.0398 471.512 37.3864 471.921 37.625C472.33 37.8598 472.806 37.9773 473.347 37.9773C473.7 37.9773 474.018 37.928 474.302 37.8295C474.59 37.7273 474.838 37.5758 475.046 37.375C475.254 37.1705 475.415 36.9167 475.529 36.6136L476.825 36.9773C476.688 37.4167 476.459 37.803 476.137 38.1364C475.815 38.4659 475.417 38.7235 474.944 38.9091C474.47 39.0909 473.938 39.1818 473.347 39.1818ZM485.183 32.2273L483.978 32.5682C483.902 32.3674 483.79 32.1723 483.643 31.983C483.499 31.7898 483.302 31.6307 483.052 31.5057C482.802 31.3807 482.482 31.3182 482.092 31.3182C481.558 31.3182 481.112 31.4413 480.756 31.6875C480.404 31.9299 480.228 32.2386 480.228 32.6136C480.228 32.947 480.349 33.2102 480.592 33.4034C480.834 33.5966 481.213 33.7576 481.728 33.8864L483.023 34.2045C483.804 34.3939 484.385 34.6837 484.768 35.0739C485.15 35.4602 485.342 35.9583 485.342 36.5682C485.342 37.0682 485.198 37.5152 484.91 37.9091C484.626 38.303 484.228 38.6136 483.717 38.8409C483.205 39.0682 482.611 39.1818 481.933 39.1818C481.042 39.1818 480.306 38.9886 479.722 38.6023C479.139 38.2159 478.77 37.6515 478.614 36.9091L479.887 36.5909C480.008 37.0606 480.237 37.4129 480.575 37.6477C480.915 37.8826 481.361 38 481.91 38C482.535 38 483.031 37.8674 483.398 37.6023C483.77 37.3333 483.955 37.0114 483.955 36.6364C483.955 36.3333 483.849 36.0795 483.637 35.875C483.425 35.6667 483.099 35.5114 482.66 35.4091L481.205 35.0682C480.406 34.8788 479.819 34.5852 479.444 34.1875C479.073 33.786 478.887 33.2841 478.887 32.6818C478.887 32.1894 479.025 31.7538 479.302 31.375C479.582 30.9962 479.963 30.6989 480.444 30.483C480.929 30.267 481.478 30.1591 482.092 30.1591C482.955 30.1591 483.633 30.3485 484.126 30.7273C484.622 31.1061 484.974 31.6061 485.183 32.2273ZM490.906 39.1818C490.087 39.1818 489.383 38.9886 488.792 38.6023C488.201 38.2159 487.746 37.6837 487.428 37.0057C487.11 36.3277 486.951 35.553 486.951 34.6818C486.951 33.7955 487.114 33.0133 487.44 32.3352C487.769 31.6534 488.228 31.1212 488.815 30.7386C489.406 30.3523 490.095 30.1591 490.883 30.1591C491.496 30.1591 492.049 30.2727 492.542 30.5C493.034 30.7273 493.438 31.0455 493.752 31.4545C494.067 31.8636 494.262 32.3409 494.337 32.8864H492.996C492.894 32.4886 492.667 32.1364 492.315 31.8295C491.966 31.5189 491.496 31.3636 490.906 31.3636C490.383 31.3636 489.924 31.5 489.531 31.7727C489.14 32.0417 488.835 32.4223 488.616 32.9148C488.4 33.4034 488.292 33.9773 488.292 34.6364C488.292 35.3106 488.398 35.8977 488.61 36.3977C488.826 36.8977 489.129 37.286 489.519 37.5625C489.913 37.839 490.375 37.9773 490.906 37.9773C491.254 37.9773 491.57 37.9167 491.854 37.7955C492.138 37.6742 492.379 37.5 492.576 37.2727C492.773 37.0455 492.913 36.7727 492.996 36.4545H494.337C494.262 36.9697 494.074 37.4337 493.775 37.8466C493.479 38.2557 493.087 38.5814 492.599 38.8239C492.114 39.0625 491.549 39.1818 490.906 39.1818ZM496.298 39V30.2727H497.593V31.5909H497.684C497.843 31.1591 498.131 30.8087 498.548 30.5398C498.964 30.2708 499.434 30.1364 499.957 30.1364C500.055 30.1364 500.178 30.1383 500.326 30.142C500.474 30.1458 500.585 30.1515 500.661 30.1591V31.5227C500.616 31.5114 500.512 31.4943 500.349 31.4716C500.19 31.4451 500.021 31.4318 499.843 31.4318C499.419 31.4318 499.04 31.5208 498.707 31.6989C498.377 31.8731 498.116 32.1155 497.923 32.4261C497.733 32.733 497.638 33.0833 497.638 33.4773V39H496.298ZM502.251 39V30.2727H503.592V39H502.251ZM502.933 28.8182C502.671 28.8182 502.446 28.7292 502.256 28.5511C502.071 28.3731 501.978 28.1591 501.978 27.9091C501.978 27.6591 502.071 27.4451 502.256 27.267C502.446 27.089 502.671 27 502.933 27C503.194 27 503.417 27.089 503.603 27.267C503.792 27.4451 503.887 27.6591 503.887 27.9091C503.887 28.1591 503.792 28.3731 503.603 28.5511C503.417 28.7292 503.194 28.8182 502.933 28.8182ZM506.048 42.2727V30.2727H507.343V31.6591H507.502C507.601 31.5076 507.737 31.3144 507.911 31.0795C508.089 30.8409 508.343 30.6288 508.673 30.4432C509.006 30.2538 509.457 30.1591 510.025 30.1591C510.76 30.1591 511.407 30.3428 511.968 30.7102C512.529 31.0777 512.966 31.5985 513.281 32.2727C513.595 32.947 513.752 33.7424 513.752 34.6591C513.752 35.5833 513.595 36.3845 513.281 37.0625C512.966 37.7367 512.531 38.2595 511.974 38.6307C511.417 38.9981 510.775 39.1818 510.048 39.1818C509.487 39.1818 509.038 39.089 508.701 38.9034C508.364 38.714 508.104 38.5 507.923 38.2614C507.741 38.0189 507.601 37.8182 507.502 37.6591H507.388V42.2727H506.048ZM507.366 34.6364C507.366 35.2955 507.462 35.8769 507.656 36.3807C507.849 36.8807 508.131 37.2727 508.502 37.5568C508.873 37.8371 509.328 37.9773 509.866 37.9773C510.426 37.9773 510.894 37.8295 511.269 37.5341C511.648 37.2348 511.932 36.8333 512.121 36.3295C512.315 35.822 512.411 35.2576 512.411 34.6364C512.411 34.0227 512.317 33.4697 512.127 32.9773C511.942 32.4811 511.659 32.089 511.281 31.8011C510.906 31.5095 510.434 31.3636 509.866 31.3636C509.32 31.3636 508.862 31.5019 508.491 31.7784C508.12 32.0511 507.839 32.4337 507.65 32.9261C507.46 33.4148 507.366 33.9848 507.366 34.6364ZM519.593 30.2727V31.4091H515.07V30.2727H519.593ZM516.388 28.1818H517.729V36.5C517.729 36.8788 517.784 37.1629 517.894 37.3523C518.008 37.5379 518.152 37.6629 518.326 37.7273C518.504 37.7879 518.692 37.8182 518.888 37.8182C519.036 37.8182 519.157 37.8106 519.252 37.7955C519.347 37.7765 519.423 37.7614 519.479 37.75L519.752 38.9545C519.661 38.9886 519.534 39.0227 519.371 39.0568C519.209 39.0947 519.002 39.1136 518.752 39.1136C518.373 39.1136 518.002 39.0322 517.638 38.8693C517.279 38.7064 516.979 38.4583 516.741 38.125C516.506 37.7917 516.388 37.3712 516.388 36.8636V28.1818ZM525.062 39.1818C524.274 39.1818 523.583 38.9943 522.988 38.6193C522.397 38.2443 521.935 37.7197 521.602 37.0455C521.272 36.3712 521.107 35.5833 521.107 34.6818C521.107 33.7727 521.272 32.9792 521.602 32.3011C521.935 31.6231 522.397 31.0966 522.988 30.7216C523.583 30.3466 524.274 30.1591 525.062 30.1591C525.85 30.1591 526.539 30.3466 527.13 30.7216C527.725 31.0966 528.187 31.6231 528.516 32.3011C528.85 32.9792 529.016 33.7727 529.016 34.6818C529.016 35.5833 528.85 36.3712 528.516 37.0455C528.187 37.7197 527.725 38.2443 527.13 38.6193C526.539 38.9943 525.85 39.1818 525.062 39.1818ZM525.062 37.9773C525.66 37.9773 526.153 37.8239 526.539 37.517C526.925 37.2102 527.211 36.8068 527.397 36.3068C527.583 35.8068 527.675 35.2652 527.675 34.6818C527.675 34.0985 527.583 33.5549 527.397 33.0511C527.211 32.5473 526.925 32.1402 526.539 31.8295C526.153 31.5189 525.66 31.3636 525.062 31.3636C524.463 31.3636 523.971 31.5189 523.585 31.8295C523.198 32.1402 522.912 32.5473 522.727 33.0511C522.541 33.5549 522.448 34.0985 522.448 34.6818C522.448 35.2652 522.541 35.8068 522.727 36.3068C522.912 36.8068 523.198 37.2102 523.585 37.517C523.971 37.8239 524.463 37.9773 525.062 37.9773ZM534.586 42.4545C533.938 42.4545 533.381 42.3712 532.915 42.2045C532.45 42.0417 532.061 41.8258 531.751 41.5568C531.444 41.2917 531.2 41.0076 531.018 40.7045L532.086 39.9545C532.207 40.1136 532.361 40.2955 532.546 40.5C532.732 40.7083 532.986 40.8883 533.308 41.0398C533.633 41.1951 534.059 41.2727 534.586 41.2727C535.29 41.2727 535.872 41.1023 536.33 40.7614C536.789 40.4205 537.018 39.8864 537.018 39.1591V37.3864H536.904C536.806 37.5455 536.665 37.7424 536.484 37.9773C536.306 38.2083 536.048 38.4148 535.711 38.5966C535.378 38.7746 534.927 38.8636 534.359 38.8636C533.654 38.8636 533.022 38.697 532.461 38.3636C531.904 38.0303 531.463 37.5455 531.137 36.9091C530.815 36.2727 530.654 35.5 530.654 34.5909C530.654 33.697 530.811 32.9186 531.126 32.2557C531.44 31.589 531.878 31.0739 532.438 30.7102C532.999 30.3428 533.647 30.1591 534.381 30.1591C534.95 30.1591 535.4 30.2538 535.734 30.4432C536.071 30.6288 536.328 30.8409 536.506 31.0795C536.688 31.3144 536.828 31.5076 536.927 31.6591H537.063V30.2727H538.359V39.25C538.359 40 538.188 40.6098 537.847 41.0795C537.51 41.553 537.056 41.8996 536.484 42.1193C535.915 42.3428 535.283 42.4545 534.586 42.4545ZM534.54 37.6591C535.078 37.6591 535.533 37.536 535.904 37.2898C536.275 37.0436 536.558 36.6894 536.751 36.2273C536.944 35.7652 537.04 35.2121 537.04 34.5682C537.04 33.9394 536.946 33.3845 536.756 32.9034C536.567 32.4223 536.287 32.0455 535.915 31.7727C535.544 31.5 535.086 31.3636 534.54 31.3636C533.972 31.3636 533.499 31.5076 533.12 31.7955C532.745 32.0833 532.463 32.4697 532.273 32.9545C532.088 33.4394 531.995 33.9773 531.995 34.5682C531.995 35.1742 532.09 35.7102 532.279 36.1761C532.472 36.6383 532.756 37.0019 533.131 37.267C533.51 37.5284 533.98 37.6591 534.54 37.6591ZM540.813 39V30.2727H542.109V31.5909H542.2C542.359 31.1591 542.647 30.8087 543.063 30.5398C543.48 30.2708 543.95 30.1364 544.472 30.1364C544.571 30.1364 544.694 30.1383 544.842 30.142C544.989 30.1458 545.101 30.1515 545.177 30.1591V31.5227C545.131 31.5114 545.027 31.4943 544.864 31.4716C544.705 31.4451 544.537 31.4318 544.359 31.4318C543.934 31.4318 543.556 31.5208 543.222 31.6989C542.893 31.8731 542.631 32.1155 542.438 32.4261C542.249 32.733 542.154 33.0833 542.154 33.4773V39H540.813ZM549.335 39.2045C548.781 39.2045 548.28 39.1004 547.829 38.892C547.378 38.6799 547.02 38.375 546.755 37.9773C546.49 37.5758 546.357 37.0909 546.357 36.5227C546.357 36.0227 546.456 35.6174 546.653 35.3068C546.85 34.9924 547.113 34.7462 547.442 34.5682C547.772 34.3902 548.136 34.2576 548.533 34.1705C548.935 34.0795 549.338 34.0076 549.744 33.9545C550.274 33.8864 550.704 33.8352 551.033 33.8011C551.367 33.7633 551.609 33.7008 551.761 33.6136C551.916 33.5265 551.994 33.375 551.994 33.1591V33.1136C551.994 32.553 551.84 32.1174 551.533 31.8068C551.23 31.4962 550.77 31.3409 550.153 31.3409C549.513 31.3409 549.011 31.4811 548.647 31.7614C548.283 32.0417 548.028 32.3409 547.88 32.6591L546.607 32.2045C546.835 31.6742 547.138 31.2614 547.516 30.9659C547.899 30.6667 548.316 30.4583 548.766 30.3409C549.221 30.2197 549.668 30.1591 550.107 30.1591C550.388 30.1591 550.71 30.1932 551.073 30.2614C551.441 30.3258 551.795 30.4602 552.136 30.6648C552.48 30.8693 552.766 31.178 552.994 31.5909C553.221 32.0038 553.335 32.5568 553.335 33.25V39H551.994V37.8182H551.925C551.835 38.0076 551.683 38.2102 551.471 38.4261C551.259 38.642 550.977 38.8258 550.624 38.9773C550.272 39.1288 549.842 39.2045 549.335 39.2045ZM549.539 38C550.069 38 550.516 37.8958 550.88 37.6875C551.247 37.4792 551.524 37.2102 551.71 36.8807C551.899 36.5511 551.994 36.2045 551.994 35.8409V34.6136C551.937 34.6818 551.812 34.7443 551.619 34.8011C551.429 34.8542 551.21 34.9015 550.96 34.9432C550.713 34.9811 550.473 35.0152 550.238 35.0455C550.007 35.072 549.819 35.0947 549.675 35.1136C549.327 35.1591 549.001 35.233 548.698 35.3352C548.399 35.4337 548.156 35.5833 547.971 35.7841C547.789 35.9811 547.698 36.25 547.698 36.5909C547.698 37.0568 547.871 37.4091 548.215 37.6477C548.564 37.8826 549.005 38 549.539 38ZM559.668 30.2727V31.4091H554.964V30.2727H559.668ZM556.373 39V29.0682C556.373 28.5682 556.49 28.1515 556.725 27.8182C556.96 27.4848 557.265 27.2348 557.64 27.0682C558.015 26.9015 558.411 26.8182 558.827 26.8182C559.157 26.8182 559.426 26.8447 559.634 26.8977C559.843 26.9508 559.998 27 560.1 27.0455L559.714 28.2045C559.646 28.1818 559.551 28.1534 559.43 28.1193C559.312 28.0852 559.157 28.0682 558.964 28.0682C558.521 28.0682 558.201 28.1799 558.004 28.4034C557.81 28.6269 557.714 28.9545 557.714 29.3864V39H556.373ZM563.866 39.2045C563.313 39.2045 562.811 39.1004 562.36 38.892C561.909 38.6799 561.551 38.375 561.286 37.9773C561.021 37.5758 560.888 37.0909 560.888 36.5227C560.888 36.0227 560.987 35.6174 561.184 35.3068C561.381 34.9924 561.644 34.7462 561.974 34.5682C562.303 34.3902 562.667 34.2576 563.065 34.1705C563.466 34.0795 563.87 34.0076 564.275 33.9545C564.805 33.8864 565.235 33.8352 565.565 33.8011C565.898 33.7633 566.14 33.7008 566.292 33.6136C566.447 33.5265 566.525 33.375 566.525 33.1591V33.1136C566.525 32.553 566.371 32.1174 566.065 31.8068C565.762 31.4962 565.301 31.3409 564.684 31.3409C564.044 31.3409 563.542 31.4811 563.178 31.7614C562.815 32.0417 562.559 32.3409 562.411 32.6591L561.138 32.2045C561.366 31.6742 561.669 31.2614 562.048 30.9659C562.43 30.6667 562.847 30.4583 563.298 30.3409C563.752 30.2197 564.199 30.1591 564.638 30.1591C564.919 30.1591 565.241 30.1932 565.604 30.2614C565.972 30.3258 566.326 30.4602 566.667 30.6648C567.012 30.8693 567.298 31.178 567.525 31.5909C567.752 32.0038 567.866 32.5568 567.866 33.25V39H566.525V37.8182H566.457C566.366 38.0076 566.214 38.2102 566.002 38.4261C565.79 38.642 565.508 38.8258 565.156 38.9773C564.803 39.1288 564.373 39.2045 563.866 39.2045ZM564.07 38C564.601 38 565.048 37.8958 565.411 37.6875C565.779 37.4792 566.055 37.2102 566.241 36.8807C566.43 36.5511 566.525 36.2045 566.525 35.8409V34.6136C566.468 34.6818 566.343 34.7443 566.15 34.8011C565.96 34.8542 565.741 34.9015 565.491 34.9432C565.245 34.9811 565.004 35.0152 564.769 35.0455C564.538 35.072 564.351 35.0947 564.207 35.1136C563.858 35.1591 563.532 35.233 563.229 35.3352C562.93 35.4337 562.688 35.5833 562.502 35.7841C562.32 35.9811 562.229 36.25 562.229 36.5909C562.229 37.0568 562.402 37.4091 562.746 37.6477C563.095 37.8826 563.536 38 564.07 38ZM570.313 39V30.2727H571.609V31.5909H571.7C571.859 31.1591 572.147 30.8087 572.563 30.5398C572.98 30.2708 573.45 30.1364 573.972 30.1364C574.071 30.1364 574.194 30.1383 574.342 30.142C574.489 30.1458 574.601 30.1515 574.677 30.1591V31.5227C574.631 31.5114 574.527 31.4943 574.364 31.4716C574.205 31.4451 574.037 31.4318 573.859 31.4318C573.434 31.4318 573.056 31.5208 572.722 31.6989C572.393 31.8731 572.131 32.1155 571.938 32.4261C571.749 32.733 571.654 33.0833 571.654 33.4773V39H570.313Z" fill="#0A3871"/>
<path d="M376 1H656V-1H376V1ZM679 24V43H681V24H679ZM656 66H376V68H656V66ZM353 43V24H351V43H353ZM376 66C363.297 66 353 55.7025 353 43H351C351 56.8071 362.193 68 376 68V66ZM679 43C679 55.7025 668.703 66 656 66V68C669.807 68 681 56.8071 681 43H679ZM656 1C668.703 1 679 11.2975 679 24H681C681 10.1929 669.807 -1 656 -1V1ZM376 -1C362.193 -1 351 10.1929 351 24H353C353 11.2975 363.297 1 376 1V-1Z" fill="#0A3871"/>
</svg>
